<svg xmlns="http://www.w3.org/2000/svg" viewBox="0 0 100 100">
  <defs>
    <linearGradient id="mapsolGradient" x1="0%" y1="0%" x2="100%" y2="100%">
      <stop offset="0%" stop-color="#0088ff" />
      <stop offset="100%" stop-color="#ff5500" />
    </linearGradient>
  </defs>
  <!-- Verbindungspunkte oben + links (blau) -->
  <rect x="40" y="0" width="8" height="20" fill="#0088ff" />
  <rect x="52" y="0" width="8" height="20" fill="#0088ff" />
  <rect x="0" y="40" width="20" height="8" fill="#0088ff" />
  <rect x="0" y="52" width="20" height="8" fill="#0088ff" />
  <!-- Verbindungspunkte rechts + unten (orange) -->
  <rect x="80" y="40" width="20" height="8" fill="#ff5500" />
  <rect x="80" y="52" width="20" height="8" fill="#ff5500" />
  <rect x="40" y="80" width="8" height="20" fill="#ff5500" />
  <rect x="52" y="80" width="8" height="20" fill="#ff5500" />
  <!-- Hauptquadrat mit Verlauf -->
  <rect x="20" y="20" width="60" height="60" rx="10" fill="url(#mapsolGradient)" />
  <!-- Buchstabe M -->
  <path d="M30 30 L30 70 L40 70 L40 40 L50 60 L60 40 L60 70 L70 70 L70 30 L55 30 L50 45 L45 30 L30 30 Z" fill="#ffffff" />
</svg>
